<svg width="20" height="21" viewBox="0 0 20 21" fill="none" xmlns="http://www.w3.org/2000/svg">
<path d="M16.4 9.39429H3.6C3.048 9.39429 3 9.84129 3 10.3943C3 10.9473 3.048 11.3943 3.6 11.3943H16.4C16.952 11.3943 17 10.9473 17 10.3943C17 9.84129 16.952 9.39429 16.4 9.39429ZM16.4 13.3943H3.6C3.048 13.3943 3 13.8413 3 14.3943C3 14.9473 3.048 15.3943 3.6 15.3943H16.4C16.952 15.3943 17 14.9473 17 14.3943C17 13.8413 16.952 13.3943 16.4 13.3943ZM3.6 7.39429H16.4C16.952 7.39429 17 6.94729 17 6.39429C17 5.84129 16.952 5.39429 16.4 5.39429H3.6C3.048 5.39429 3 5.84129 3 6.39429C3 6.94729 3.048 7.39429 3.6 7.39429Z" fill="#AFB3B8"/>
</svg>
